<svg xmlns="http://www.w3.org/2000/svg" width="760" height="460" viewBox="0 0 760 460">
<rect x="0" y="0" width="100%" height="100%" fill="#fcfdf7"/>
<rect x="20" y="20" width="720" height="420" rx="18" fill="#ffffff" stroke="#e0ebda" stroke-width="1.5"/>
<text x="380.0" y="46" text-anchor="middle" font-size="20" font-family="Arial" fill="#183d2b" font-weight="700">Park-level tiger change, 2022–2026</text>
<text x="80" y="62" font-size="12" font-family="Arial" fill="#4b5563">Positive gains in most parks, with Bardiya as the main exception.</text>
<line x1="80" y1="360" x2="720" y2="360" stroke="#183d2b" stroke-width="1.4"/>
<line x1="80" y1="70" x2="80" y2="360" stroke="#183d2b" stroke-width="1.4"/>
<line x1="80" y1="70.0" x2="720" y2="70.0" stroke="#eef3e9" stroke-width="1"/>
<text x="68" y="74.0" text-anchor="end" font-size="12" font-family="Arial" fill="#4b5563">30</text>
<line x1="80" y1="128.0" x2="720" y2="128.0" stroke="#eef3e9" stroke-width="1"/>
<text x="68" y="132.0" text-anchor="end" font-size="12" font-family="Arial" fill="#4b5563">24</text>
<line x1="80" y1="186.0" x2="720" y2="186.0" stroke="#eef3e9" stroke-width="1"/>
<text x="68" y="190.0" text-anchor="end" font-size="12" font-family="Arial" fill="#4b5563">18</text>
<line x1="80" y1="244.0" x2="720" y2="244.0" stroke="#eef3e9" stroke-width="1"/>
<text x="68" y="248.0" text-anchor="end" font-size="12" font-family="Arial" fill="#4b5563">12</text>
<line x1="80" y1="302.0" x2="720" y2="302.0" stroke="#eef3e9" stroke-width="1"/>
<text x="68" y="306.0" text-anchor="end" font-size="12" font-family="Arial" fill="#4b5563">6</text>
<line x1="80" y1="360.0" x2="720" y2="360.0" stroke="#eef3e9" stroke-width="1"/>
<text x="68" y="364.0" text-anchor="end" font-size="12" font-family="Arial" fill="#4b5563">0</text>
<rect x="106" y="224.0" width="70" height="136.0" rx="8" fill="#2f6f4f" fill-opacity="0.95"/>
<line x1="141" y1="360" x2="141" y2="352" stroke="#94a3b8" stroke-width="1"/>
<text x="141" y="386" text-anchor="middle" font-size="12" font-family="Arial" fill="#374151">Chitwan</text>
<text x="141" y="216.0" text-anchor="middle" font-size="12" font-family="Arial" fill="#2f6f4f">17</text>
<rect x="216" y="120.0" width="70" height="240.0" rx="8" fill="#2f6f4f" fill-opacity="0.95"/>
<line x1="251" y1="360" x2="251" y2="352" stroke="#94a3b8" stroke-width="1"/>
<text x="251" y="386" text-anchor="middle" font-size="12" font-family="Arial" fill="#374151">Parsa</text>
<text x="251" y="112.0" text-anchor="middle" font-size="12" font-family="Arial" fill="#2f6f4f">30</text>
<rect x="326" y="152.0" width="70" height="208.0" rx="8" fill="#2f6f4f" fill-opacity="0.95"/>
<line x1="361" y1="360" x2="361" y2="352" stroke="#94a3b8" stroke-width="1"/>
<text x="361" y="386" text-anchor="middle" font-size="12" font-family="Arial" fill="#374151">Banke</text>
<text x="361" y="144.0" text-anchor="middle" font-size="12" font-family="Arial" fill="#2f6f4f">26</text>
<rect x="436" y="248.0" width="70" height="112.0" rx="8" fill="#2f6f4f" fill-opacity="0.95"/>
<line x1="471" y1="360" x2="471" y2="352" stroke="#94a3b8" stroke-width="1"/>
<text x="471" y="386" text-anchor="middle" font-size="12" font-family="Arial" fill="#374151">Shuklaphanta</text>
<text x="471" y="240.0" text-anchor="middle" font-size="12" font-family="Arial" fill="#2f6f4f">14</text>
<rect x="546" y="360" width="70" height="104.0" rx="8" fill="#dc2626" fill-opacity="0.95"/>
<line x1="581" y1="360" x2="581" y2="352" stroke="#94a3b8" stroke-width="1"/>
<text x="581" y="386" text-anchor="middle" font-size="12" font-family="Arial" fill="#374151">Bardiya</text>
<text x="581" y="352" text-anchor="middle" font-size="12" font-family="Arial" fill="#dc2626">-13</text>
<line x1="80" y1="360" x2="720" y2="360" stroke="#183d2b" stroke-width="1.4"/>
</svg>